<?xml version="1.0" standalone="no"?>
<!DOCTYPE svg PUBLIC "-//W3C//DTD SVG 20010904//EN"
 "http://www.w3.org/TR/2001/REC-SVG-20010904/DTD/svg10.dtd">
<svg version="1.0" xmlns="http://www.w3.org/2000/svg"
 width="297.000000pt" height="297.000000pt" viewBox="0 0 297.000000 297.000000"
 preserveAspectRatio="xMidYMid meet">
<metadata>
Created by potrace 1.11, written by Peter Selinger 2001-2013
</metadata>
<g transform="translate(0.000000,297.000000) scale(0.100000,-0.100000)"
fill="#000000" stroke="none">
<path d="M1345 2964 c-290 -41 -481 -111 -695 -252 -113 -74 -318 -279 -392
-392 -174 -264 -253 -524 -253 -835 0 -311 79 -571 253 -835 74 -113 279 -318
392 -392 264 -174 524 -253 835 -253 311 0 571 79 835 253 113 74 318 279 392
392 174 264 253 524 253 835 0 311 -79 571 -253 835 -74 113 -279 318 -392
392 -173 114 -354 190 -549 229 -92 19 -357 33 -426 23z m-610 -876 c22 -20
44 -89 154 -474 71 -248 132 -471 136 -495 11 -64 21 -78 28 -36 3 20 76 249
161 511 182 553 164 520 289 514 67 -3 82 -7 97 -26 16 -19 235 -669 317 -939
l27 -93 14 67 c22 108 260 933 276 958 20 30 56 37 182 33 l100 -3 -213 -685
c-117 -377 -218 -702 -223 -723 l-11 -38 -122 3 -122 3 -170 533 c-154 483
-171 531 -179 501 -6 -18 -83 -258 -172 -533 l-162 -501 -122 0 -122 0 -217
700 c-120 385 -221 710 -225 723 l-7 22 130 0 c120 0 132 -2 156 -22z"/>
</g>
</svg>
